<?xml version="1.0" standalone="no"?>
<!DOCTYPE svg PUBLIC "-//W3C//DTD SVG 20010904//EN"
 "http://www.w3.org/TR/2001/REC-SVG-20010904/DTD/svg10.dtd">
<svg version="1.0" xmlns="http://www.w3.org/2000/svg"
 width="512.000000pt" height="512.000000pt" viewBox="0 0 512.000000 512.000000"
 preserveAspectRatio="xMidYMid meet">

<g transform="translate(0.000000,512.000000) scale(0.100000,-0.100000)"
fill="currentcolor" stroke="none">
<path d="M2210 4635 c-219 -27 -560 -105 -649 -148 -40 -19 -57 -58 -42 -95
22 -54 51 -57 177 -18 133 41 297 78 454 103 181 28 654 25 849 -5 396 -62
785 -209 1086 -410 465 -310 752 -712 856 -1204 29 -135 32 -425 7 -563 -67
-358 -227 -658 -505 -946 -113 -117 -125 -145 -80 -187 47 -44 72 -32 192 90
487 497 667 1123 505 1758 -149 585 -651 1123 -1310 1405 -218 93 -516 176
-760 211 -161 23 -625 28 -780 9z"/>
<path d="M1126 4294 c-845 -476 -1261 -1283 -1084 -2104 30 -142 72 -260 143
-407 102 -209 203 -349 384 -536 l95 -98 -82 -247 c-95 -288 -99 -317 -48
-368 53 -53 75 -49 456 77 l335 112 116 -46 c238 -95 505 -160 779 -192 156
-17 488 -20 641 -5 364 37 728 139 1022 287 129 64 278 155 293 179 30 45 -7
114 -60 114 -11 0 -61 -25 -112 -55 -426 -255 -916 -385 -1444 -385 -371 0
-711 60 -1020 180 -58 23 -129 50 -158 61 l-53 20 -332 -110 c-182 -61 -332
-109 -334 -108 -1 2 33 111 78 243 59 175 79 248 75 272 -4 26 -32 62 -128
161 -259 267 -410 525 -488 834 -123 491 -11 990 319 1422 158 208 429 433
691 574 52 29 101 59 108 68 33 44 -6 113 -64 113 -17 0 -70 -23 -128 -56z"/>
<path d="M610 3308 c-52 -56 5 -143 78 -117 28 9 52 44 52 73 0 7 -9 25 -21
40 -27 34 -79 36 -109 4z"/>
<path d="M916 3259 l-26 -20 0 -603 0 -603 23 -21 c29 -27 67 -28 98 -3 l24
19 3 276 3 276 317 -2 317 -3 5 -278 c5 -261 6 -280 24 -293 28 -20 69 -17 97
5 l24 19 0 602 0 602 -28 24 c-34 29 -56 30 -91 3 l-26 -20 0 -255 0 -254
-320 0 -320 0 0 240 c0 254 -4 280 -47 299 -34 16 -47 14 -77 -10z"/>
<path d="M3103 3256 l-28 -24 0 -600 c0 -576 1 -601 19 -621 25 -27 79 -28
106 -1 20 20 20 33 20 624 l0 605 -26 20 c-35 27 -57 26 -91 -3z"/>
<path d="M4423 3210 c-12 -5 -26 -18 -32 -29 -7 -13 -11 -186 -11 -524 0 -495
0 -505 21 -531 27 -34 77 -36 107 -3 22 23 22 23 22 534 0 472 -1 512 -17 531
-21 25 -60 35 -90 22z"/>
<path d="M612 2997 c-22 -23 -22 -23 -22 -533 0 -553 -1 -544 55 -558 29 -7
79 15 89 39 3 9 6 243 6 519 0 494 0 504 -21 530 -27 34 -77 36 -107 3z"/>
<path d="M4113 2900 c-29 -12 -43 -40 -43 -88 l0 -40 -79 41 c-99 50 -193 60
-297 32 -307 -83 -410 -470 -184 -695 136 -137 363 -160 522 -55 l38 25 0 -45
c0 -54 33 -95 75 -95 14 0 37 11 50 25 l25 24 0 414 c0 381 -1 416 -17 435
-21 25 -60 35 -90 22z m-218 -207 c31 -10 67 -34 95 -63 168 -167 50 -450
-188 -450 -152 0 -265 112 -264 263 1 77 17 121 69 177 74 83 181 110 288 73z"/>
<path d="M2320 2884 c-143 -39 -265 -158 -311 -305 -36 -117 -19 -264 44 -371
38 -65 129 -145 205 -181 64 -30 73 -32 187 -32 114 0 123 2 187 32 166 78
268 238 268 418 0 302 -286 518 -580 439z m233 -154 c70 -26 125 -75 162 -141
27 -49 30 -63 30 -144 0 -78 -4 -97 -27 -140 -32 -60 -77 -105 -138 -137 -62
-32 -171 -37 -241 -12 -147 53 -232 221 -189 376 24 86 119 183 204 207 55 16
142 12 199 -9z"/>
<path d="M4424 1928 c-22 -10 -44 -47 -44 -72 0 -7 9 -25 21 -40 15 -19 30
-26 54 -26 79 0 104 99 34 135 -32 17 -36 17 -65 3z"/>
</g>
</svg>
